<svg width="48" height="48" viewBox="0 0 48 48" fill="none" xmlns="http://www.w3.org/2000/svg">
  <defs>
    <linearGradient id="gpa-icon-bg" x1="6" y1="4" x2="42" y2="44" gradientUnits="userSpaceOnUse">
      <stop stop-color="#2563eb"/>
      <stop offset="1" stop-color="#1d4ed8"/>
    </linearGradient>
  </defs>
  <rect x="4" y="4" width="40" height="40" rx="11" fill="url(#gpa-icon-bg)"/>
  <path d="M15 13.5h13.5c1.1 0 2 .9 2 2V31.5c0 1.1-.9 2-2 2H15c-1.1 0-2-.9-2-2V15.5c0-1.1.9-2 2-2Z" fill="white" fill-opacity="0.96"/>
  <path d="M26.5 13.5V17c0 1.1.9 2 2 2h3.5" stroke="white" stroke-opacity="0.55" stroke-width="1.2"/>
  <rect x="17" y="19" width="10" height="1.6" rx="0.8" fill="#1d4ed8" fill-opacity="0.75"/>
  <rect x="17" y="22.5" width="8.5" height="1.6" rx="0.8" fill="#1d4ed8" fill-opacity="0.55"/>
  <rect x="17" y="26" width="9.5" height="1.6" rx="0.8" fill="#1d4ed8" fill-opacity="0.55"/>
  <circle cx="33.5" cy="33.5" r="7.5" fill="#10b981"/>
  <path d="M30.2 33.6l2.1 2.1 4.4-4.6" stroke="white" stroke-width="2" stroke-linecap="round" stroke-linejoin="round"/>
</svg>
